<?xml version="1.0" encoding="utf-8"?>
<!-- Generator: Adobe Illustrator 21.0.0, SVG Export Plug-In . SVG Version: 6.00 Build 0)  -->
<svg version="1.0" id="Layer_1" xmlns="http://www.w3.org/2000/svg" xmlns:xlink="http://www.w3.org/1999/xlink" x="0px" y="0px"
	 viewBox="0 0 200 200" style="enable-background:new 0 0 200 200;" xml:space="preserve">
<style type="text/css">
	.st0{fill:url(#SVGID_1_);}
	.st1{fill:url(#SVGID_2_);}
	.st2{fill:url(#SVGID_3_);}
	.st3{fill:url(#SVGID_4_);}
	.st4{fill:url(#SVGID_5_);}
	.st5{fill:url(#SVGID_6_);}
	.st6{fill:url(#SVGID_7_);}
	.st7{fill:url(#SVGID_8_);}
	.st8{fill:url(#SVGID_9_);}
	.st9{fill:url(#SVGID_10_);}
	.st10{fill:url(#SVGID_11_);}
	.st11{fill:url(#SVGID_12_);}
	.st12{fill:url(#SVGID_13_);}
	.st13{fill:url(#SVGID_14_);}
	.st14{fill:url(#SVGID_15_);}
	.st15{fill:url(#SVGID_16_);}
	.st16{fill:url(#SVGID_17_);}
	.st17{fill:url(#SVGID_18_);}
</style>
<g>
	<g>
		
			<linearGradient id="SVGID_1_" gradientUnits="userSpaceOnUse" x1="164.4323" y1="188.812" x2="17.7372" y2="-1.8916" gradientTransform="matrix(0 -1 1 0 13 187)">
			<stop  offset="0" style="stop-color:#FFAA20"/>
			<stop  offset="1" style="stop-color:#BD492C"/>
		</linearGradient>
		<path class="st0" d="M6.2,100.5c0,52.1,42.2,94.3,94.3,94.3s94.3-42.2,94.3-94.3S152.6,6.2,100.5,6.2S6.2,48.4,6.2,100.5z
			 M188,100.5c0,48.3-39.2,87.5-87.5,87.5S13,148.8,13,100.5S52.2,13,100.5,13S188,52.2,188,100.5z"/>
		
			<linearGradient id="SVGID_2_" gradientUnits="userSpaceOnUse" x1="154.7805" y1="176.0859" x2="77.9751" y2="76.2389" gradientTransform="matrix(0 -1 1 0 13 187)">
			<stop  offset="0" style="stop-color:#FFAA20"/>
			<stop  offset="1" style="stop-color:#BD492C"/>
		</linearGradient>
		<path class="st1" d="M194.8,100.5c0-52.1-42.2-94.3-94.3-94.3c-23.2,0-44.5,8.4-60.9,22.4l4.5,5.2C59.3,20.8,79,13,100.5,13
			c48.3,0,87.5,39.2,87.5,87.5c0,26.1-11.4,49.5-29.5,65.5l4.5,5.2C182.5,153.9,194.8,128.6,194.8,100.5z"/>
	</g>
	<g>
		<linearGradient id="SVGID_3_" gradientUnits="userSpaceOnUse" x1="39.7702" y1="75.0453" x2="161.2298" y2="75.0453">
			<stop  offset="0" style="stop-color:#FF4F24"/>
			<stop  offset="1" style="stop-color:#762E2C"/>
		</linearGradient>
		<path class="st2" d="M65.2,78.1L39.8,51.3c0,0,32.9-20.5,66.2-17.8c30.4,2.5,53.3,28.8,52.3,59.3c-0.3,9.1-0.7,16.3,3,18.8
			l-6.8,5.1L65.2,78.1z"/>
		<linearGradient id="SVGID_4_" gradientUnits="userSpaceOnUse" x1="76.6309" y1="31.1878" x2="118.0015" y2="98.3354">
			<stop  offset="0" style="stop-color:#FF4F24"/>
			<stop  offset="0.1335" style="stop-color:#F64D25"/>
			<stop  offset="0.3475" style="stop-color:#DF4726"/>
			<stop  offset="0.6152" style="stop-color:#B93E28"/>
			<stop  offset="0.9235" style="stop-color:#84312B"/>
			<stop  offset="1" style="stop-color:#762E2C"/>
		</linearGradient>
		<path class="st3" d="M51.7,63.9l13.5,14.2L95,91c19.1-18.6,28.2-40.9,31.7-51.6c-6.3-3.2-13.3-5.3-20.8-5.9
			c-16.2-1.3-32.3,2.9-44.5,7.5C58.1,48.8,54.6,57,51.7,63.9z"/>
		<linearGradient id="SVGID_5_" gradientUnits="userSpaceOnUse" x1="55.9126" y1="-2.3924" x2="67.7934" y2="102.8372">
			<stop  offset="0" style="stop-color:#FF4F24"/>
			<stop  offset="0.1335" style="stop-color:#F64D25"/>
			<stop  offset="0.3475" style="stop-color:#DF4726"/>
			<stop  offset="0.6152" style="stop-color:#B93E28"/>
			<stop  offset="0.9235" style="stop-color:#84312B"/>
			<stop  offset="1" style="stop-color:#762E2C"/>
		</linearGradient>
		<path class="st4" d="M82.3,35c-23.7,4.5-42.6,16.3-42.6,16.3l25.5,26.7l6.3,2.8C81,65.8,82.8,48.3,82.3,35z"/>
		<linearGradient id="SVGID_6_" gradientUnits="userSpaceOnUse" x1="81.2694" y1="41.5544" x2="116.2752" y2="100.1096">
			<stop  offset="0" style="stop-color:#FFD820"/>
			<stop  offset="1" style="stop-color:#BD492C"/>
		</linearGradient>
		<path class="st5" d="M75.7,92.3L60.4,77c0,0,25.3-29.9,61.9-17.9c18.2,6,29.8,24.1,27.4,43.2c-0.3,2.2-0.6,3.6-0.6,3.6l-8.5,1.3
			L75.7,92.3z"/>
		<linearGradient id="SVGID_7_" gradientUnits="userSpaceOnUse" x1="84.1493" y1="29.3075" x2="111.7295" y2="97.6218">
			<stop  offset="0" style="stop-color:#FFAA20"/>
			<stop  offset="1" style="stop-color:#BD492C"/>
		</linearGradient>
		<path class="st6" d="M76.9,93.5L61.6,78.2c0,0,25.3-29.9,61.9-17.9c18.2,6,29.8,24.1,27.4,43.2c-0.3,2.2-0.6,3.6-0.6,3.6l-8.5,1.3
			L76.9,93.5z"/>
		<linearGradient id="SVGID_8_" gradientUnits="userSpaceOnUse" x1="132.6013" y1="142.9673" x2="116.6895" y2="122.282">
			<stop  offset="0" style="stop-color:#FFAA20"/>
			<stop  offset="1" style="stop-color:#BD492C"/>
		</linearGradient>
		<path class="st7" d="M138.3,109.6c0,0-1.7,13.2,8.1,15.7c0,0-13.6,16.5-22.5,16.5s-16.1,7.2-16.1,7.2l-6.8-6.4l25-25L138.3,109.6z
			"/>
		<radialGradient id="SVGID_9_" cx="95.5967" cy="89.7053" r="48.4833" gradientUnits="userSpaceOnUse">
			<stop  offset="0" style="stop-color:#FFAA20"/>
			<stop  offset="1" style="stop-color:#BD492C"/>
		</radialGradient>
		<path class="st8" d="M72.1,99.8c0,0,2.1-26.3,33.1-30.1c31-3.4,42,24.2,36.1,43.3l-42,32.7l-8.1-11.5c0,0,8.9-25.5,7.6-25.5
			C97.6,108.7,72.1,99.8,72.1,99.8z"/>
		<linearGradient id="SVGID_10_" gradientUnits="userSpaceOnUse" x1="137.6712" y1="152.5048" x2="93.1184" y2="68.9153">
			<stop  offset="0" style="stop-color:#FFAA20"/>
			<stop  offset="1" style="stop-color:#BD492C"/>
		</linearGradient>
		<path class="st9" d="M126.2,73c-3.2,10-11.4,29.7-29.6,45.2c-2.3,7.2-5.3,16-5.3,16l8.1,11.5l42-32.7
			C145.6,99.1,140.9,80.7,126.2,73z"/>
		<g>
			<linearGradient id="SVGID_11_" gradientUnits="userSpaceOnUse" x1="63.6378" y1="136.889" x2="120.4958" y2="136.889">
				<stop  offset="0" style="stop-color:#FFAA20"/>
				<stop  offset="1" style="stop-color:#BD492C"/>
			</linearGradient>
			<path class="st10" d="M63.6,102.6v40.5l11.8-13.2c0,0-7-7.6-2.9-14.3c4.1-6.7,21.6-8.6,21.6-8.6s0.4,11.5-10.2,21.2l-11.5,17.8
				l9.3,36.5c0,0,15.3-3,34.4-32.7l-16.1-17.4l20.4-20.4l-3-14.9c0,0-41.2,2.3-53.9-6.1V102.6z"/>
			<linearGradient id="SVGID_12_" gradientUnits="userSpaceOnUse" x1="63.6378" y1="117.1584" x2="89.7511" y2="117.1584">
				<stop  offset="0" style="stop-color:#FFAA20"/>
				<stop  offset="1" style="stop-color:#BD492C"/>
			</linearGradient>
			<path class="st11" d="M72.5,115.6c1.9-3,6.4-5,10.8-6.4c1.6-4.8,3.9-8.9,6.4-12.2c-10.3-0.7-20.7-2.3-26.1-5.9v11.4v40.5
				l11.8-13.2C75.4,129.9,68.4,122.3,72.5,115.6z"/>
		</g>
		<g>
			<linearGradient id="SVGID_13_" gradientUnits="userSpaceOnUse" x1="116.4468" y1="95.6981" x2="122.8116" y2="120.3082">
				<stop  offset="0" style="stop-color:#FFAA20"/>
				<stop  offset="1" style="stop-color:#BD492C"/>
			</linearGradient>
			<circle class="st12" cx="118.7" cy="104.4" r="5.4"/>
			<linearGradient id="SVGID_14_" gradientUnits="userSpaceOnUse" x1="125.1935" y1="114.001" x2="114.9038" y2="98.0892">
				<stop  offset="0" style="stop-color:#FFAA20"/>
				<stop  offset="1" style="stop-color:#BD492C"/>
			</linearGradient>
			<path class="st13" d="M121.9,100l-6.2,8.9c0.8,0.6,1.9,0.9,2.9,0.9c3,0,5.4-2.4,5.4-5.4C124.1,102.6,123.2,101,121.9,100z"/>
		</g>
		<linearGradient id="SVGID_15_" gradientUnits="userSpaceOnUse" x1="82.5069" y1="136.5276" x2="115.2851" y2="186.8087">
			<stop  offset="0" style="stop-color:#FFAA20"/>
			<stop  offset="1" style="stop-color:#BD492C"/>
		</linearGradient>
		<path class="st14" d="M82.1,182.5c-1.1-9.6-7.5-36.6-7.5-36.6s4.8-7.2,12.9-18.8c8.1-11.7,6.7-19.6,6.7-19.6l0,0
			c0,2.1-0.8,12.1-10.2,20.8l-11.5,17.8l9.3,36.5C81.9,182.6,82,182.5,82.1,182.5z"/>
		<linearGradient id="SVGID_16_" gradientUnits="userSpaceOnUse" x1="63.9442" y1="102.41" x2="68.1874" y2="149.933">
			<stop  offset="0" style="stop-color:#FFAA20"/>
			<stop  offset="1" style="stop-color:#BD492C"/>
		</linearGradient>
		<path class="st15" d="M63.6,102.6v40.5l0.9-1L67,93c-1.3-0.5-2.4-1.1-3.4-1.7V102.6z"/>
	</g>
	<g>
		<linearGradient id="SVGID_17_" gradientUnits="userSpaceOnUse" x1="181.9122" y1="206.3359" x2="28.6668" y2="7.1169">
			<stop  offset="0" style="stop-color:#FFAA20"/>
			<stop  offset="1" style="stop-color:#BD492C"/>
		</linearGradient>
		<path class="st16" d="M100.5,2C46.1,2,2,46.1,2,100.5S46.1,199,100.5,199s98.5-44.1,98.5-98.5S154.9,2,100.5,2z M100.5,191.9
			C50,191.9,9.1,151,9.1,100.5S50,9.1,100.5,9.1s91.4,40.9,91.4,91.4S151,191.9,100.5,191.9z"/>
		<linearGradient id="SVGID_18_" gradientUnits="userSpaceOnUse" x1="171.8294" y1="193.0415" x2="91.5944" y2="88.736">
			<stop  offset="0" style="stop-color:#FFAA20"/>
			<stop  offset="1" style="stop-color:#BD492C"/>
		</linearGradient>
		<path class="st17" d="M100.5,199c54.4,0,98.5-44.1,98.5-98.5c0-24.3-8.8-46.5-23.3-63.7l-5.4,4.7c13.5,15.9,21.6,36.5,21.6,59
			c0,50.5-40.9,91.4-91.4,91.4c-27.2,0-51.7-11.9-68.4-30.9l-5.4,4.7C44.7,186.1,71.1,199,100.5,199z"/>
	</g>
</g>
</svg>
